# 3ds Max Wavefront OBJ Exporter v0.99 - (c)2007 guruware
# File Created: 24.04.2023 14:44:39

mtllib IRMountBRight.mtl

#
# object Object005
#

v  25.0619 -61.1115 -0.0615
v  31.1619 -61.1115 -0.0615
v  31.1619 -62.1115 -0.0615
v  24.0619 -62.1115 -0.0615
v  24.0619 -51.4115 -0.0615
v  31.1619 -51.4115 -0.0615
v  31.1619 -52.4115 -0.0615
v  25.0619 -52.4115 -0.0615
v  31.1619 -62.1115 3.1685
v  31.1619 -61.1115 3.1685
v  25.0619 -61.1115 3.1685
v  25.0619 -52.4115 3.1685
v  31.1619 -52.4115 3.1685
v  31.1619 -51.4115 3.1685
v  24.0619 -51.4115 3.1685
v  24.0619 -62.1115 3.1685
v  24.0619 -61.7529 2.0369
v  24.0619 -61.7606 0.0444
v  24.0619 -51.8598 0.0369
v  24.0619 -51.8598 2.0369
v  15.4313 -51.8653 10.0369
v  14.5324 -51.8599 10.0369
v  16.2689 -61.7528 10.0369
v  17.1564 -61.7507 10.0369
v  17.1564 -61.7507 2.0369
v  15.4313 -51.8653 2.0369
v  14.5324 -51.8599 0.0369
v  16.2689 -61.7528 0.0369
# 28 vertices

vn 0.5774 0.5774 0.5773
vn 0.5774 0.5773 -0.5774
vn 0.5774 -0.5774 -0.5773
vn -0.5774 -0.5774 -0.5773
vn -0.5773 0.5773 -0.5774
vn 0.5774 -0.5773 0.5774
vn -0.5774 0.5774 0.5773
vn -0.5774 -0.5773 0.5774
vn -0.9041 -0.3016 0.3027
vn -0.9049 -0.3018 -0.3001
vn -0.9046 0.3013 -0.3015
vn -0.9046 0.3015 0.3014
vn 0.5226 0.6180 0.5873
vn -0.6283 0.5310 0.5685
vn -0.5198 -0.6207 0.5869
vn 0.6302 -0.5284 0.5689
vn 0.3095 -0.8850 0.3479
vn 0.2889 0.9214 0.2598
vn -0.6296 0.5297 -0.5683
vn -0.5204 -0.6200 -0.5872
# 20 vertex normals

vt 0.1869 1.0000 0.0000
vt 0.7570 1.0000 0.0000
vt 0.6636 1.0000 0.0000
vt 0.0000 1.0000 0.0000
vt 0.9672 1.0000 0.0000
vt 1.6636 1.0000 0.0000
vt 1.5701 1.0000 0.0000
vt 1.0000 1.0000 0.0000
vt 0.0328 1.0000 0.0000
vt 0.0850 1.0000 0.0000
vt 0.0547 0.0004 0.0000
vt 0.0850 0.0000 0.0000
vt 0.9700 0.0000 0.0000
vt 0.9700 1.0000 0.0000
vt 0.6885 0.0000 0.0000
vt 0.0000 0.0000 0.0000
vt 1.0000 0.0000 0.0000
vt 0.0237 1.0000 0.0000
vt 0.2017 -0.0005 0.0000
vt 0.0300 0.0328 0.0000
vt 0.9150 1.0000 0.0000
vt 0.0300 1.0000 0.0000
# 22 texture coords

o Object005
g Object005
usemtl wire_087225143
s 2
f 1/1/1 2/2/2 3/3/3 4/4/4 5/5/5 6/6/2 7/7/3 8/8/6 
f 9/3/6 10/2/1 11/1/2 12/8/3 13/7/6 14/6/1 15/8/7 16/9/8 
s 1
f 2/2/2 1/1/1 11/1/2 10/2/1 
s 4
f 3/3/3 2/2/2 10/2/1 9/3/6 
s 1
f 4/4/4 3/3/3 9/3/6 16/9/8 
s 4
f 1/1/1 8/8/6 12/8/3 11/1/2 
s 1
f 6/6/2 5/5/5 15/8/7 14/6/1 
s 4
f 7/7/3 6/6/2 14/6/1 13/7/6 
s 1
f 8/8/6 7/7/3 13/7/6 12/8/3 
s 4
f 4/9/4 16/9/8 17/9/9 18/9/10 
f 15/5/7 5/5/5 19/5/11 20/5/12 
f 17/9/9 16/9/8 15/8/7 20/5/12 
f 19/5/11 5/5/5 4/4/4 18/9/10 
f 21/10/13 22/4/14 23/11/15 24/12/16 
s off
f 25/12/17 26/10/18 21/10/13 24/12/16 
f 26/10/18 27/4/19 22/4/14 21/10/13 
s 4
f 25/12/17 17/13/9 20/14/12 26/10/18 
s 8
f 17/15/9 25/12/17 28/16/20 18/15/10 
s 2
f 28/17/20 27/8/19 19/18/11 18/19/10 
s 32
f 19/20/11 27/17/19 26/21/18 20/22/12 
s off
f 28/16/20 23/16/15 22/4/14 27/4/19 
s 8
f 25/12/17 24/12/16 23/16/15 28/16/20 
# 22 polygons

