# 3ds Max Wavefront OBJ Exporter v0.99 - (c)2007 guruware
# File Created: 24.04.2023 14:43:34

mtllib IRMountARight.mtl

#
# object Box012
#

v  30.8810 -51.3554 -0.0663
v  36.1767 -41.5348 -0.0246
v  42.3037 -45.2722 0.0237
v  37.0081 -55.0928 -0.0181
v  36.9476 -55.0936 2.3804
v  36.9151 -55.7685 5.5607
v  30.2764 -52.3445 6.3592
v  30.1586 -51.3562 1.9890
v  41.6805 -46.3946 4.9854
v  35.9768 -43.4529 5.6715
v  31.6710 -51.4379 4.1119
v  37.3746 -54.3796 3.4259
v  37.4100 -54.8506 5.7400
v  31.7064 -51.9090 6.4260
v  36.0122 -43.9240 7.9856
v  41.6981 -46.6288 6.1361
v  41.7159 -46.8657 7.2995
v  42.2432 -45.2730 4.2989
v  42.2108 -45.9479 7.4788
v  35.5721 -42.5239 8.2773
v  35.4543 -41.5356 3.9071
v  42.1952 -45.5520 6.3486
v  36.0836 -36.7445 2.0684
v  35.4219 -36.7445 3.8953
v  41.5489 -36.7527 6.1145
v  42.2106 -36.7527 4.2876
v  30.7778 -36.7662 0.1782
v  30.1262 -36.7662 1.9772
v  30.8205 -51.3562 0.1617
v  36.1441 -36.7437 -0.0248
v  42.2711 -36.7519 0.0234
v  30.8383 -36.7654 -0.0660
# 32 vertices

vn -0.6084 -0.3800 -0.6968
vn 0.0079 0.0000 -1.0000
vn 0.7396 -0.1837 -0.6475
vn 0.2247 -0.7894 -0.5712
vn 0.2971 -0.9499 -0.0971
vn 0.2396 -0.8820 0.4057
vn -0.7679 -0.3611 0.5291
vn -0.9330 -0.3532 -0.0695
vn 0.6413 -0.7476 0.1728
vn 0.2489 -0.8791 0.4065
vn 0.7889 0.1226 0.6022
vn 0.9407 -0.1903 0.2807
vn 0.7889 0.1225 0.6022
vn 0.4211 -0.0563 0.9053
vn 0.1389 -0.5794 0.8031
vn 0.5738 0.8042 0.1549
vn 0.2488 -0.8792 0.4064
vn 0.9728 -0.2316 0.0020
vn 0.7935 0.0719 0.6043
vn -0.2279 0.6416 0.7324
vn -0.4334 0.2987 0.8502
vn 0.9527 0.1390 0.2704
vn -0.0011 1.0000 -0.0000
vn -0.2415 0.7077 0.6640
vn 0.3215 0.5969 0.7351
vn 0.7279 0.6726 0.1331
vn -0.6678 0.7164 -0.2018
vn -0.7411 0.5756 0.3458
vn -0.8214 -0.5087 -0.2578
vn 0.0046 0.7078 -0.7064
vn 0.5829 0.5777 -0.5714
vn -0.4968 0.5898 -0.6367
# 32 vertex normals

vt 1.0000 0.0000 0.0000
vt 1.0000 1.0000 0.0000
vt 0.0000 1.0000 0.0000
vt 0.0000 0.0000 0.0000
vt 0.0000 0.5000 0.0000
vt 1.0000 0.1250 0.0000
vt 0.0000 0.4972 0.0000
vt 0.0000 0.1250 0.0000
vt 1.0000 0.5000 0.0000
vt 1.0000 0.2500 0.0000
vt 0.0000 0.2500 0.0000
# 11 texture coords

o Box012
g Box012
usemtl wire_177028149
s 2
f 1/1/1 2/2/2 3/3/3 4/4/4 
s 8
f 5/1/5 6/2/6 7/3/7 8/5/8 
s 2
f 9/3/9 10/2/10 11/1/11 12/4/12 
s 8
f 13/2/13 12/1/12 11/4/11 14/3/14 
s 32
f 15/2/15 10/6/10 9/4/9 16/7/16 17/3/17 
s 64
f 14/2/14 11/1/11 10/8/10 15/3/15 
s 1
f 5/4/5 18/3/18 9/3/9 12/4/12 
f 6/2/6 5/1/5 12/1/12 13/2/13 
s 2
f 7/3/7 6/2/6 13/2/13 14/3/14 
f 19/3/19 20/2/20 15/2/15 17/3/17 
f 20/3/20 7/2/7 14/2/14 15/3/15 
s 32
f 21/9/21 20/2/20 19/3/19 22/5/22 
s 64
f 8/9/8 7/2/7 20/3/20 21/5/21 
s 32
f 23/10/23 24/9/24 25/5/25 26/11/26 
s 64
f 27/10/27 28/9/28 24/5/24 23/11/23 
s off
f 29/6/29 8/9/8 28/9/28 27/10/27 
f 8/9/8 21/5/21 24/5/24 28/9/28 
f 21/9/21 22/5/22 25/5/25 24/9/24 
f 22/5/22 18/8/18 26/11/26 25/5/25 
f 3/8/3 2/6/2 30/10/30 31/11/31 
f 2/8/2 1/6/1 32/10/32 30/11/30 
s 1
f 22/5/22 19/3/19 17/3/17 16/7/16 
f 18/8/18 22/5/22 16/7/16 9/4/9 
s 8
f 8/5/8 29/8/29 5/1/5 
s off
f 18/3/18 5/4/5 4/4/4 3/3/3 
f 5/4/5 29/1/29 1/1/1 4/4/4 
f 29/6/29 27/10/27 32/10/32 1/6/1 
f 27/10/27 23/11/23 30/11/30 32/10/32 
f 23/10/23 26/11/26 31/11/31 30/10/30 
f 26/11/26 18/8/18 3/8/3 31/11/31 
# 29 polygons - 1 triangles

