<?xml version="1.0" standalone="no"?>
<!DOCTYPE svg PUBLIC "-//W3C//DTD SVG 1.1//EN"
  "http://www.w3.org/Graphics/SVG/1.1/DTD/svg11.dtd">
<svg width="151mm" height="60.498249053955064mm" viewBox="-80.5 -31.999999999999993 151 60.498249053955064" xmlns="http://www.w3.org/2000/svg" version="1.1">
	<title>svgOutput</title>
	<desc>made with tinkercad</desc>
<path d="M 69.48500061035156 -0.8259999752044674 L 69.488525390625 1.1102230246251565e-16 L 69.5 2.6900000572204585 L 69.4834976196289 3.481250047683715 L 69.46499633789062 4.006999969482421 L 69.4260025024414 4.7930002212524405 L 69.38800048828125 4.857999801635741 L 69.3600082397461 4.938192844390868 L 69.29900360107422 5.112999916076659 L 69.26200103759766 5.330999851226806 L 69.25399780273438 5.665999889373778 L 69.2020034790039 6.022999763488768 L 68.99603271484375 6.898071289062498 L 68.69499969482422 8.177000045776365 L 68.10700225830078 10.032999992370604 L 67.07099914550781 12.51500034332275 L 66.05050659179688 14.420484542846676 L 65.73799896240234 15.003999710083004 L 65.53600311279297 15.319468498229977 L 64.53099822998047 16.88899993896484 L 64.09100341796875 17.493000030517575 L 63.56999969482422 18.14100074768066 L 62.40800094604492 19.472999572753903 L 61.222999572753906 20.63699913024902 L 59.494998931884766 22.07799911499023 L 57.64699935913086 23.372999191284176 L 55.65800094604492 24.509000778198235 L 53.57899856567383 25.469999313354485 L 51.4109992980957 26.263000488281243 L 49.17599868774414 26.851999282836907 L 49.152000427246094 26.856536865234368 L 47.47800064086914 27.173000335693352 L 46.41075134277344 27.287000656127923 L 45.76824951171875 27.343250274658196 L 44.90800094604492 27.39800071716308 L 42.13600158691406 27.48600006103515 L 41.057498931884766 27.496500015258782 L 40.36275100708008 27.49824905395507 L 38.927249908447266 27.481750488281243 L 38.47850036621094 27.467250823974602 L 37.5620002746582 27.434999465942376 L 35.93000030517578 27.274000167846673 L 34.56700134277344 27.114000320434563 L 32.768001556396484 26.832906723022454 L 32.6150016784668 26.809000015258782 L 30.729999542236328 26.423000335693352 L 30.208999633789062 26.327999114990227 L 25.24285888671875 25.299373626708977 L 17.246000289916992 23.642999649047848 L 16.20482063293457 23.448614120483395 L 14.75 23.177000045776364 L 8.26099967956543 22.0930004119873 L 4.989999771118164 21.677999496459957 L 4.268820285797119 21.59802436828613 L 1.906000018119812 21.33600044250488 L -2.4918330338583386e-14 21.15168762207031 L -1.1859999895095825 21.037000656127926 L -4.434000015258789 20.804000854492184 L -6.609000205993652 20.767999649047848 L -10.88599967956543 20.75300025939941 L -14.12600040435791 20.78300094604492 L -16.384000778198242 20.841138839721676 L -17.232999801635742 20.863000869750973 L -17.292999267578125 20.877000808715817 L -22.597000122070312 21.40800094604492 L -25.301000595092773 21.736000061035153 L -27.43199920654297 22.034000396728512 L -32.768001556396484 22.91963386535644 L -33.92100143432617 23.111000061035153 L -39.500999450683594 24.129999160766594 L -41.803001403808594 24.502000808715813 L -44.12699890136719 24.80699920654296 L -44.15629959106445 24.8097858428955 L -45.20000076293945 24.90900039672851 L -46.88399887084961 25.010999679565423 L -48.27000045776367 25.054500579833977 L -49.21049880981445 25.074499130249016 L -50.645999908447266 25.090999603271477 L -54.319000244140625 24.996000289916985 L -55.875999450683594 24.886999130249016 L -56.821998596191406 24.784999847412102 L -57.858001708984375 24.61100006103515 L -59.99599838256836 24.15900039672851 L -62.625999450683594 23.42399978637695 L -65.06199645996094 22.499999999999996 L -65.53600311279297 22.26617050170898 L -66.7750015258789 21.654960632324215 L -67.30400085449219 21.39399909973144 L -69.28434753417969 20.13709449768066 L -69.48713684082031 19.99024391174316 L -69.92354583740234 19.646814346313473 L -71.73300170898438 18.044000625610348 L -73.27362823486328 16.38400077819824 L -73.5270004272461 16.111000061035153 L -75.11799621582031 14.01500034332275 L -76.49199676513672 11.777000427246092 L -77.63400268554688 9.41800022125244 L -78.08308410644531 8.19200038909912 L -78.29299926757812 7.618929862976072 L -78.53399658203125 6.960999965667723 L -78.58251953125 6.77169609069824 L -78.74341583251953 6.14400005340576 L -78.78021240234375 6.000418663024901 L -78.7901611328125 5.9089012145996085 L -78.79199981689453 5.892000198364257 L -78.84469604492188 5.748857498168944 L -79.01167297363281 5.097402572631835 L -79.02300262451172 4.960000038146972 L -79.07666015625 4.8438658714294425 L -79.18299865722656 4.42899990081787 L -79.2091064453125 4.257107257843017 L -79.22948455810547 4.09600019454956 L -79.26200103759766 3.8389999866485587 L -79.35800170898438 2.4419999122619624 L -79.46039581298828 1.1102230246251565e-16 L -79.47000122070312 -0.22900000214576705 L -79.47750091552734 -0.6909999847412107 L -79.5 -3.3167500495910636 L -79.5 -3.7300000190734854 L -79.4952392578125 -3.8901827335357657 L -79.18299865722656 -5.946000099182128 L -78.6070785522461 -8.19200038909912 L -78.53399658203125 -8.477000236511229 L -77.63400268554688 -10.934000015258787 L -76.49199676513672 -13.293000221252438 L -75.11799621582031 -15.531999588012692 L -74.47127532958984 -16.38400077819824 L -73.99439239501953 -17.012254714965817 L -73.91999816894531 -17.09900093078613 L -72.63099670410156 -18.466999053955075 L -71.2979965209961 -19.733999252319332 L -70.39600372314453 -20.504999160766598 L -69.57475280761719 -21.08399963378906 L -69.18374633789062 -21.353250503540036 L -67.72575378417969 -22.275749206542965 L -67.1875 -22.607000350952145 L -66.7750015258789 -22.850362777709957 L -66.67900085449219 -22.90699958801269 L -65.53600311279297 -23.50378036499023 L -65.30000305175781 -23.627000808715817 L -63.25899887084961 -24.603000640869134 L -62.218833923339844 -25.055204391479485 L -62.17100143432617 -25.07600021362304 L -62.15878677368164 -25.07600021362304 L -62.104251861572266 -25.07600021362304 L -62.05400085449219 -25.08325004577636 L -61.970001220703125 -25.10499954223632 L -61.71699905395508 -25.229000091552727 L -60.792999267578125 -25.548999786376946 L -58.87799835205078 -26.14599990844726 L -56.6879997253418 -26.785999298095696 L -55.06399917602539 -27.22999954223632 L -52.762001037597656 -27.768999099731438 L -50.81800079345703 -28.176000595092766 L -49.152000427246094 -28.471607208251946 L -48.805999755859375 -28.533000946044915 L -47.06999969482422 -28.795000076293938 L -42.145999908447266 -29.52300071716308 L -40.082000732421875 -29.784999847412102 L -33.25 -30.40299987792968 L -33.034000396728516 -30.447000503540032 L -32.768001556396484 -30.46283340454101 L -30.597999572753906 -30.59199905395507 L -21.18899917602539 -30.92700004577636 L -20.83099937438965 -30.96400070190429 L -20.80900001525879 -30.99300003051757 L -20.6299991607666 -30.985000610351555 L -16.801000595092773 -30.999999999999993 L -8.366999626159668 -30.941999435424798 L -0.7910000085830688 -30.825000762939446 L 0 -30.799249649047844 L 3.447999954223633 -30.687000274658196 L 8.321000099182129 -30.475999832153313 L 9.579999923706055 -30.39599990844726 L 15.711000442504883 -29.930000305175774 L 18.944000244140625 -29.638999938964837 L 22.10300064086914 -29.281999588012688 L 25.64900016784668 -28.788000106811516 L 30.902000427246094 -28.000999450683587 L 32.768001556396484 -27.667678833007805 L 33.38199996948242 -27.558000564575188 L 34.91699981689453 -27.236999511718743 L 38.34400177001953 -26.465999603271477 L 41.792999267578125 -25.614000320434563 L 44.37099838256836 -24.91600036621093 L 48.676998138427734 -23.613000869750973 L 49.152000427246094 -23.440496444702145 L 49.257999420166016 -23.40200042724609 L 50.68899917602539 -22.85600090026855 L 52.95399856567383 -21.881000518798825 L 55.040000915527344 -20.861999511718746 L 56.305999755859375 -20.18499946594238 L 57.44599914550781 -19.523000717163082 L 58.49599838256836 -18.846000671386715 L 59.516998291015625 -18.124999999999996 L 60.529998779296875 -17.32500076293945 L 61.60300064086914 -16.422000885009762 L 63.04800033569336 -15.119999885559078 L 63.845001220703125 -14.282999992370602 L 64.88099670410156 -13.03800010681152 L 65.53600311279297 -12.105596542358395 L 65.84200286865234 -11.670000076293944 L 66.70600128173828 -10.2209997177124 L 67.4739990234375 -8.699999809265135 L 68.12899780273438 -7.136000156402586 L 68.65799713134766 -5.564000129699706 L 68.9489974975586 -4.385000228881835 L 69.4260025024414 -2.0629999637603755 L 69.48500061035156 -0.8259999752044674 M -1.9010000228881836 2.0780000686645503 L -2.2209999561309814 1.3070000410079956 L -2.743000030517578 0.6660000085830688 L -3.256999969482422 0.2730000019073487 L -3.6740000247955322 0.07000000029802332 L -3.932904005050659 1.1102230246251565e-16 L -4.754000186920166 -0.22200000286102278 L -5.789999961853027 -0.14900000393390642 L -6.210705757141113 1.1102230246251565e-16 L -6.2220001220703125 0.004000000189989915 L -6.855000019073486 0.3459999859333039 L -7.495999813079834 0.9359999895095824 L -7.934999942779541 1.6779999732971187 L -8.128999710083008 2.355000019073486 L -8.189000129699707 2.799000024795532 L -8.13599967956543 3.431999921798705 L -7.922336578369141 4.09600019454956 L -7.875999927520752 4.239999771118163 L -7.390999794006348 4.946000099182128 L -6.885000228881836 5.412000179290771 L -6.3480000495910645 5.745999813079833 L -6.050000190734863 5.869999885559081 L -5.962500095367432 5.886499881744384 L -5.426249980926514 5.957749843597411 L -5.258749961853027 5.966750144958495 L -5.03000020980835 5.972000122070312 L -4.493000030517578 5.949999809265136 L -3.8970000743865967 5.811999797821044 L -3.3389999866485596 5.557000160217284 L -2.9070000648498535 5.243999958038329 L -2.615999937057495 4.988999843597411 L -2.056999921798706 4.173999786376952 L -2.0376181602478027 4.09600019454956 L -1.8109999895095825 3.184000015258788 L -1.8040000200271606 2.7409999370574947 L -1.9010000228881836 2.0780000686645503 z" fill="none" stroke="rgb(255,0,0)" stroke-width="0.001mm" />
</svg>